<?xml version="1.0" encoding="UTF-8"?>
<svg viewBox="29 191 63 14" xmlns="http://www.w3.org/2000/svg" role="img" aria-labelledby="title">
  <title id="title">ECCV</title>
  <g fill="#1d76bb" fill-rule="nonzero">
    <path d="M40.68,195.46l-0.59,0l-0.19,-0.7c-0.33,-1.22 -0.74,-1.67 -3.37,-1.67l-2.04,0l-0,4.14c2.89,0 3.11,-0.26 3.11,-2.18l0.7,0l-0,5.51l-0.7,0c-0,-1.92 -0.22,-2.18 -3.11,-2.18l-0,1.7c-0,2.63 0.33,3.07 2.26,3.07l0.52,0c2.63,0 3.03,-0.44 3.37,-1.67l0.19,-0.67l0.56,-0l-0.22,3.48l-11.62,-0l-0,-0.7c2.07,-0 2.4,-0.48 2.4,-3.11l-0,-4.74c-0,-2.63 -0.33,-3.07 -2.4,-3.07l-0,-0.7l10.88,-0l0.26,3.48l-0.01,0.01Z"/>
    <path d="M56.48,204.3c-0.15,-0.52 -0.3,-1.04 -0.44,-1.29c-0.96,1 -2.55,1.78 -4,1.78c-3.89,-0 -7.03,-3 -7.03,-6.66c-0,-3.66 3.15,-6.62 7.03,-6.62c1.44,-0 3.03,0.7 3.96,1.74c0.19,-0.3 0.33,-0.81 0.48,-1.26l0.7,-0l-0,5.07l-0.74,-0c-0.59,-2.74 -2.15,-4.4 -4.4,-4.4c-3.33,-0 -4.22,3.11 -4.22,5.48c-0,2.37 0.89,5.48 4.22,5.48c2.26,-0 3.81,-1.67 4.4,-4.4l0.74,-0l-0,5.11l-0.7,-0l-0,-0.03Z"/>
    <path d="M72.83,204.3c-0.15,-0.52 -0.3,-1.04 -0.44,-1.29c-0.96,1 -2.55,1.78 -4,1.78c-3.89,-0 -7.03,-3 -7.03,-6.66c0,-3.66 3.15,-6.62 7.03,-6.62c1.44,-0 3.03,0.7 3.96,1.74c0.19,-0.3 0.33,-0.81 0.48,-1.26l0.7,-0l0,5.07l-0.74,-0c-0.59,-2.74 -2.15,-4.4 -4.4,-4.4c-3.33,-0 -4.22,3.11 -4.22,5.48c-0,2.37 0.89,5.48 4.22,5.48c2.26,-0 3.81,-1.67 4.4,-4.4l0.74,-0l0,5.11l-0.7,-0l0,-0.03Z"/>
    <path d="M88.33,195.16l-4.51,9.62l-0.63,-0l-4.51,-9.62c-0.96,-2 -1.3,-2.48 -2.96,-2.48l0,-0.7l7.18,-0l0,0.7c-2.15,-0 -2.37,0.59 -1.67,2.07l2.96,6.29l2.96,-6.29c0.74,-1.52 0.74,-2.07 -1.59,-2.07l0,-0.7l5.88,-0l0,0.7c-1.85,-0 -2.15,0.44 -3.11,2.48Z"/>
  </g>
</svg>
